<?xml version="1.0" encoding="iso-8859-1"?>
<!-- Generator: Adobe Illustrator 19.1.0, SVG Export Plug-In . SVG Version: 6.00 Build 0)  -->
<svg version="1.1" id="Capa_1" xmlns="http://www.w3.org/2000/svg" xmlns:xlink="http://www.w3.org/1999/xlink" x="0px" y="0px"
	 viewBox="0 0 42.996 42.996" style="enable-background:new 0 0 42.996 42.996;" xml:space="preserve">
<g id="pencil">
	<g>
		<path d="M34.661,15.314l1.417-1.423l-0.021-0.021l0.021-0.021l-1.417-1.409l-0.014,0.014L26.29,4.06l0.131-0.132l-1.504-1.423
			L24.83,2.593l-0.088-0.088l-1.417,1.423l0.093,0.093L0,27.707v11.33h10.986L34.64,15.292L34.661,15.314z M10.156,37.024H2.004
			v-8.483l17.921-18.065l8.341,8.378L10.156,37.024z M29.684,17.432L21.34,9.05l3.536-3.565l8.353,8.39L29.684,17.432z
			 M41.173,35.784c-0.011,0.023-1.073,2.274-3.141,2.642c-1.692,0.299-3.69-0.686-5.928-2.933c-2.49-2.501-5.128-3.696-7.847-3.565
			c-4.156,0.208-6.883,3.499-6.997,3.639l1.549,1.277c0.023-0.027,2.302-2.751,5.564-2.906c2.125-0.098,4.245,0.902,6.313,2.979
			c2.366,2.378,4.628,3.577,6.738,3.576c0.33,0,0.656-0.03,0.978-0.088c3.103-0.565,4.533-3.652,4.592-3.783L41.173,35.784z"/>
	</g>
</g>
<g>
</g>
<g>
</g>
<g>
</g>
<g>
</g>
<g>
</g>
<g>
</g>
<g>
</g>
<g>
</g>
<g>
</g>
<g>
</g>
<g>
</g>
<g>
</g>
<g>
</g>
<g>
</g>
<g>
</g>
</svg>
